<?xml version="1.0" encoding="UTF-8"?>
<svg version="1.1" xmlns="http://www.w3.org/2000/svg" width="512" height="512">
<path d="M0 0 C12.19520021 9.49981593 20.00872161 21.13019494 22.6875 36.4375 C24.54010079 51.6288265 21.12734291 66.57126256 11.63085938 78.75683594 C7.34445814 83.6853178 3.19556763 87.68645296 -3 90 C4.55276753 113.35751238 12.19661281 136.68325745 19.96875 159.96875 C20.35511627 161.12640869 20.74148254 162.28406738 21.13955688 163.47680664 C23.92420952 171.81859378 26.71178448 180.15940318 29.5 188.5 C32.67905946 198.00975739 35.85689002 207.51992275 39.03125 217.03125 C39.61055582 218.76691758 39.61055582 218.76691758 40.20156479 220.53764915 C45.91622723 237.66744033 51.54901339 254.82227201 57.12051392 271.99909973 C62.38059509 288.21091683 67.75436761 304.38377747 73.15966797 320.54766846 C74.6165977 324.90590221 76.07100692 329.26497783 77.52589417 333.62389374 C79.68211838 340.08320274 81.84131485 346.54151071 84 353 C95.55 353.33 107.1 353.66 119 354 C119 375.12 119 396.24 119 418 C20 418 -79 418 -181 418 C-181 396.88 -181 375.76 -181 354 C-169.45 353.67 -157.9 353.34 -146 353 C-139.06902551 332.22986425 -132.13938886 311.4592836 -125.21204185 290.68793774 C-121.99375534 281.03818148 -118.77491449 271.38861085 -115.5546875 261.73950195 C-97.11016601 206.51222057 -97.11016601 206.51222057 -79.00548267 151.17292404 C-75.31368991 139.77604559 -71.49820658 128.42005666 -67.6875 117.0625 C-66.5782469 113.75508951 -65.46955951 110.44749511 -64.36274719 107.13926697 C-63.69197451 105.13436024 -63.01985904 103.12990203 -62.34611511 101.12599182 C-61.90348076 99.80304359 -61.90348076 99.80304359 -61.4519043 98.45336914 C-61.1943486 97.68593887 -60.93679291 96.91850861 -60.6714325 96.12782288 C-60.0312515 94.09903848 -59.49187291 92.0692186 -59 90 C-59.71542969 89.76539063 -60.43085938 89.53078125 -61.16796875 89.2890625 C-72.4069708 84.17337881 -78.74950338 71.97331129 -83 61 C-84.11289011 57.633391 -84.73546043 54.53102824 -85 51 C-85.11988281 49.65808594 -85.11988281 49.65808594 -85.2421875 48.2890625 C-85.90956884 33.64593085 -81.2481003 19.71658159 -71.8984375 8.47265625 C-53.42418868 -11.14399312 -22.48234445 -15.76579432 0 0 Z " fill="#000000" transform="translate(287,94)"/>
<path d="M0 0 C1.14491409 -0.00101212 1.14491409 -0.00101212 2.31295776 -0.00204468 C13.3648479 0.01350029 23.8238459 0.40707657 34.5625 3.25 C35.22846191 3.41097168 35.89442383 3.57194336 36.58056641 3.73779297 C69.62640484 11.75473956 99.4668074 33.45017911 117.5625 62.25 C137.3861274 95.17210612 145.30981932 134.31414151 136.8828125 172.17578125 C130.11838541 199.38415655 115.79963892 220.8795728 96.3125 240.6875 C95.81717773 241.19595459 95.32185547 241.70440918 94.81152344 242.22827148 C91.94685335 245.09920262 89.13466627 247.32702728 85.5625 249.25 C84.14548411 247.5211195 82.72890314 245.79188254 81.3125 244.0625 C80.52359375 243.09957031 79.7346875 242.13664063 78.921875 241.14453125 C78.14328125 240.18933594 77.3646875 239.23414063 76.5625 238.25 C75.78390625 237.38761719 75.0053125 236.52523437 74.203125 235.63671875 C72.5625 233.25 72.5625 233.25 72.59765625 231.1328125 C73.76498909 228.85485935 75.00174662 227.72521095 77 226.125 C85.42246687 219.0459015 92.7098886 211.59551388 98.5625 202.25 C99.22121094 201.21230469 99.87992188 200.17460937 100.55859375 199.10546875 C116.28564571 173.09191399 120.52333443 141.74437863 113.5625 112.25 C105.0928357 80.31452239 86.22110063 54.07662338 57.5625 37.25 C30.41543279 21.82711606 -2.85619393 18.72815451 -33 25.875 C-62.34082199 34.40139271 -85.35392022 54.82268678 -100.26953125 81.109375 C-115.73269669 109.76601119 -119.79179463 142.73057505 -110.875 174.0625 C-106.43833955 188.74146032 -99.17990507 201.44737307 -89.4375 213.25 C-88.78007812 214.05953125 -88.12265625 214.8690625 -87.4453125 215.703125 C-82.68599048 221.32256545 -77.31316694 225.83120949 -71.4375 230.25 C-72.99448281 235.15543378 -75.87073673 238.62950236 -79.0625 242.5625 C-79.578125 243.20767578 -80.09375 243.85285156 -80.625 244.51757812 C-81.89044182 246.0993804 -83.16324262 247.67529063 -84.4375 249.25 C-112.48832429 229.27878006 -131.06070619 198.50341271 -137.375 164.75 C-140.30368787 146.41468994 -139.91700924 126.29894499 -135.4375 108.25 C-135.24945801 107.47462891 -135.06141602 106.69925781 -134.86767578 105.90039062 C-128.27072935 79.59657558 -115.27989711 57.5299564 -96.4375 38.25 C-95.84839844 37.59902344 -95.25929687 36.94804688 -94.65234375 36.27734375 C-70.87429465 10.55326506 -33.86648207 0.0268136 0 0 Z " fill="#7B6E65" transform="translate(255.4375,-0.25)"/>
<path d="M0 0 C18.60062381 18.53882772 27.30947943 42.12009736 27.5 68 C27.30220801 92.6733251 19.56273972 112.8485132 4 132 C-0.60512687 130.74405631 -3.0270406 128.16600788 -6.21875 124.8203125 C-8.65614886 122.32946191 -11.28684862 120.18375599 -14 118 C-11.96507437 114.55912575 -9.82601488 111.21138002 -7.625 107.875 C3.01901223 91.07811995 6.96320163 72.38955774 2.9699707 52.78100586 C-1.46283635 34.21387688 -12.1571696 17.30827654 -28.296875 6.8671875 C-45.89686289 -3.75940372 -65.78767872 -8.33555363 -86.0625 -3.5 C-105.09524168 1.54244065 -121.64291267 13.11716101 -132.25 29.8125 C-141.88541905 46.86183872 -145.08533293 66.61739402 -140.5 85.75 C-137.12858278 96.70112829 -132.18025182 107.81974818 -124 116 C-125.40526214 119.27655508 -127.02917473 121.15432686 -129.75 123.4375 C-130.46027344 124.03433594 -131.17054688 124.63117188 -131.90234375 125.24609375 C-132.94068359 126.11427734 -132.94068359 126.11427734 -134 127 C-134.57878906 127.52722656 -135.15757812 128.05445313 -135.75390625 128.59765625 C-137.3125 130 -137.3125 130 -140 132 C-147.5393665 129.48687783 -152.79442602 116.95722206 -156.3125 110.0625 C-166.7593107 88.96797839 -169.22517806 61.39197978 -161.68896484 38.92236328 C-152.4243272 13.07198878 -135.36524526 -7.30502752 -110.62109375 -19.69140625 C-72.44038936 -37.02257923 -29.9097254 -29.06055338 0 0 Z " fill="#7B6E65" transform="translate(325,71)"/>
<path d="M0 0 C84.48 0 168.96 0 256 0 C256 7.26 256 14.52 256 22 C171.52 22 87.04 22 0 22 C0 14.74 0 7.48 0 0 Z " fill="#F7B81C" transform="translate(128,469)"/>
<path d="M0 0 C8.13590307 4.97348869 13.13048494 10.8025421 16.53125 19.64453125 C18.36726 28.82458124 17.74540308 37.05583022 13.28125 45.39453125 C8.43344168 52.31574028 2.64099476 58.26465997 -5.71875 60.39453125 C-15.64668489 61.72554479 -25.45281778 61.63356822 -33.71875 55.39453125 C-40.41754661 50.17847223 -44.06073631 43.36857231 -46.71875 35.39453125 C-47.66101683 24.38082221 -46.12509943 16.17677497 -39.03125 7.58203125 C-28.98084175 -3.05182766 -13.42902076 -6.33402146 0 0 Z " fill="#FDBC1C" transform="translate(270.71875,109.60546875)"/>
<path d="M0 0 C0.98242676 0.52940186 1.96485352 1.05880371 2.97705078 1.60424805 C4.54420276 2.3445718 6.11243897 3.08260222 7.68139648 3.8190918 C9.50742116 4.72218333 11.33111623 5.6299959 13.15283203 6.54174805 C14.11859665 7.02248779 15.08436127 7.50322754 16.07939148 7.99853516 C18.11180572 9.01187935 20.14318419 10.02730327 22.17358398 11.04467773 C25.29260091 12.60577466 28.41681569 14.15610259 31.54150391 15.70581055 C33.51643714 16.69214151 35.49105772 17.67909882 37.46533203 18.66674805 C38.87302605 19.36368774 38.87302605 19.36368774 40.30915833 20.07470703 C41.17062973 20.50855713 42.03210114 20.94240723 42.91967773 21.3894043 C43.68101517 21.7697583 44.4423526 22.1501123 45.22676086 22.54199219 C46.97705078 23.60424805 46.97705078 23.60424805 47.97705078 25.60424805 C43.69449977 27.61248057 39.41186144 29.62052676 35.12915039 31.62841797 C33.67958351 32.30805725 32.23003839 32.98774293 30.78051758 33.66748047 C30.08418213 33.99401611 29.38784668 34.32055176 28.67041016 34.65698242 C27.62404892 35.14791885 27.62404892 35.14791885 26.55654907 35.64877319 C25.14367327 36.31064902 23.73007389 36.97098241 22.31576538 37.62979126 C18.78774401 39.27487675 15.27434869 40.94222785 11.78222656 42.66235352 C11.11067032 42.98844101 10.43911407 43.3145285 9.74720764 43.65049744 C7.9106581 44.54336279 6.07952023 45.44733515 4.2487793 46.35205078 C-0.15434274 48.03726927 -3.20194237 48.25784735 -7.64990234 46.66137695 C-8.52582031 46.22229004 -9.40173828 45.78320312 -10.30419922 45.33081055 C-11.30136963 44.84 -12.29854004 44.34918945 -13.32592773 43.84350586 C-14.38094482 43.31080078 -15.43596191 42.7780957 -16.52294922 42.22924805 C-18.74981609 41.13086879 -20.97770365 40.03455676 -23.20654297 38.94018555 C-24.33431152 38.38427734 -25.46208008 37.82836914 -26.62402344 37.25561523 C-31.90092216 34.69183539 -37.23741184 32.26529205 -42.58544922 29.85424805 C-43.53677734 29.42450684 -44.48810547 28.99476563 -45.46826172 28.55200195 C-47.65211531 27.56707096 -49.83690352 26.58430163 -52.02294922 25.60424805 C-49.76554586 23.11750111 -47.53375319 21.65418626 -44.55493164 20.12060547 C-43.65356979 19.65389938 -42.75220795 19.1871933 -41.8235321 18.7063446 C-40.85164444 18.21245743 -39.87975677 17.71857025 -38.87841797 17.2097168 C-37.87587479 16.69870926 -36.8733316 16.18770172 -35.84040833 15.66120911 C-33.71965827 14.58448256 -31.59710516 13.51130108 -29.47290039 12.44140625 C-26.22397166 10.79858567 -22.989966 9.12858957 -19.75537109 7.45776367 C-17.69308698 6.4150317 -15.62996253 5.3739597 -13.56591797 4.3347168 C-12.600103 3.83070847 -11.63428802 3.32670013 -10.63920593 2.80741882 C-3.92968584 -0.51445814 -3.92968584 -0.51445814 0 0 Z " fill="#FBFBFB" transform="translate(258.02294921875,348.395751953125)"/>
<path d="M0 0 C1.16764893 0.56960449 2.33529785 1.13920898 3.53833008 1.72607422 C4.15060455 2.02656677 4.76287903 2.32705933 5.39370728 2.63665771 C8.61612846 4.21738587 11.84468586 5.78542508 15.07421875 7.3515625 C15.72740585 7.66834961 16.38059296 7.98513672 17.05357361 8.31152344 C26.92838925 13.08617634 36.91911478 17.61234912 46.9140625 22.12890625 C46.9140625 22.45890625 46.9140625 22.78890625 46.9140625 23.12890625 C8.6340625 23.12890625 -29.6459375 23.12890625 -69.0859375 23.12890625 C-65.47002012 20.41696821 -61.98605643 18.52672976 -57.92578125 16.65234375 C-57.22745682 16.32524414 -56.52913239 15.99814453 -55.80964661 15.66113281 C-53.54980396 14.60387159 -51.28693497 13.55331774 -49.0234375 12.50390625 C-45.93299803 11.06768441 -42.84327975 9.62991946 -39.75390625 8.19140625 C-38.99800201 7.8400058 -38.24209778 7.48860535 -37.46328735 7.1265564 C-33.21782187 5.14663206 -29.00625468 3.11569009 -24.82421875 1.00390625 C-23.5259314 0.35542725 -23.5259314 0.35542725 -22.20141602 -0.30615234 C-20.67424694 -1.07438664 -19.15447332 -1.85758784 -17.64428711 -2.65869141 C-10.81612486 -6.05826921 -6.42748265 -3.15546495 0 0 Z " fill="#FCFCFC" transform="translate(267.0859375,424.87109375)"/>
<path d="M0 0 C3.1421989 1.8164363 5.63871813 4.05725356 8.2265625 6.56640625 C13.02442425 11.09552205 17.9691555 15.34630728 23.109375 19.48828125 C26.33229386 22.09490528 29.46937127 24.78934052 32.6015625 27.50390625 C29.93338004 30.63330053 26.55625766 32.30285298 22.95703125 34.1484375 C22.30962479 34.48187668 21.66221832 34.81531586 20.99519348 35.15885925 C19.62769614 35.85892844 18.25840181 36.55549711 16.88745117 37.2487793 C14.79713371 38.31229975 12.72233527 39.40271387 10.64648438 40.49414062 C9.31337105 41.17228797 7.97941246 41.84877677 6.64453125 42.5234375 C6.02869675 42.8524556 5.41286224 43.18147369 4.77836609 43.52046204 C1.70588645 45.03347492 -0.02765557 45.57879383 -3.41918945 44.89379883 C-4.40234131 44.43513428 -5.38549316 43.97646973 -6.3984375 43.50390625 C-7.4714209 43.00487793 -8.5444043 42.50584961 -9.64990234 41.99169922 C-10.79152832 41.41564941 -11.9331543 40.83959961 -13.109375 40.24609375 C-13.72237457 39.93817902 -14.33537415 39.63026428 -14.96694946 39.3130188 C-16.90437408 38.33875562 -18.8389251 37.35893708 -20.7734375 36.37890625 C-22.09486538 35.71317095 -23.41647826 35.04780272 -24.73828125 34.3828125 C-27.96048275 32.76074802 -31.18013343 31.13369251 -34.3984375 29.50390625 C-34.3984375 28.51390625 -34.3984375 27.52390625 -34.3984375 26.50390625 C-32.40431217 24.56736204 -30.42076886 22.81877093 -28.2734375 21.06640625 C-26.99193652 19.99639427 -25.7106942 18.92607243 -24.4296875 17.85546875 C-23.76582031 17.30536133 -23.10195312 16.75525391 -22.41796875 16.18847656 C-19.16936593 13.47868939 -15.97452378 10.70699094 -12.7734375 7.94140625 C-10.65911211 6.11513048 -8.53471391 4.30480417 -6.3984375 2.50390625 C-5.71007812 1.85550781 -5.02171875 1.20710938 -4.3125 0.5390625 C-2.3984375 -0.49609375 -2.3984375 -0.49609375 0 0 Z " fill="#FCFCFC" transform="translate(257.3984375,278.49609375)"/>
<path d="M0 0 C2.70767521 1.35383761 2.7388325 2.54702649 3.71166992 5.38037109 C4.03507858 6.31158783 4.35848724 7.24280457 4.69169617 8.20223999 C5.03449112 9.21573517 5.37728607 10.22923035 5.73046875 11.2734375 C6.08514725 12.30812164 6.43982574 13.34280579 6.80525208 14.40884399 C7.55447446 16.60169757 8.29986434 18.79586369 9.04174805 20.99121094 C10.18167879 24.35780801 11.33902184 27.71806091 12.49804688 31.078125 C13.22241791 33.20536724 13.94575977 35.33296026 14.66796875 37.4609375 C15.0168364 38.47038422 15.36570404 39.47983093 15.72514343 40.51986694 C16.1960717 41.92614853 16.1960717 41.92614853 16.67651367 43.36083984 C16.95694016 44.18611176 17.23736664 45.01138367 17.52629089 45.86166382 C18 48 18 48 17 51 C-3.7078267 41.42032734 -24.36373618 31.73277273 -45 22 C-41.60814056 19.20135716 -37.89181906 17.39429692 -33.92578125 15.56640625 C-33.24251266 15.24719711 -32.55924408 14.92798798 -31.85527039 14.59910583 C-29.67634084 13.5825576 -27.49445174 12.57254222 -25.3125 11.5625 C-23.86504458 10.8877768 -22.41777705 10.21265038 -20.97070312 9.53710938 C-17.5737615 7.95310099 -14.17113972 6.38183483 -10.76568604 4.81622314 C-9.18776361 4.08679743 -7.61567867 3.34477439 -6.04443359 2.60107422 C-4.05616201 1.67480635 -2.03212845 0.82562099 0 0 Z " fill="#FAFAFA" transform="translate(326,387)"/>
<path d="M0 0 C4.85068523 0.64862429 8.83201669 2.64170593 13.1875 4.74609375 C13.96762451 5.11726822 14.74774902 5.48844269 15.55151367 5.87086487 C18.03688905 7.05449164 20.51855994 8.24564807 23 9.4375 C25.48208915 10.62436626 27.964927 11.80963678 30.44848633 12.99342346 C31.99099587 13.72922385 33.53254749 14.46703675 35.07299805 15.20713806 C38.67455528 16.93048072 42.26573177 18.57718144 46 20 C46 20.66 46 21.32 46 22 C11.22272139 38.48552193 11.22272139 38.48552193 -4.125 45.5625 C-5.11177734 46.02052002 -6.09855469 46.47854004 -7.11523438 46.95043945 C-8.00791016 47.3599585 -8.90058594 47.76947754 -9.8203125 48.19140625 C-10.58617676 48.54404541 -11.35204102 48.89668457 -12.14111328 49.26000977 C-14 50 -14 50 -16 50 C-14.67239367 43.52435799 -12.91323178 37.3913899 -10.7421875 31.15234375 C-10.43427277 30.25504044 -10.12635803 29.35773712 -9.80911255 28.4332428 C-8.8356224 25.59973911 -7.85543458 22.76860733 -6.875 19.9375 C-6.20918921 18.00340876 -5.54382037 16.06916531 -4.87890625 14.13476562 C-3.25770565 9.42140297 -1.63049891 4.71015374 0 0 Z " fill="#FAFAFA" transform="translate(184,387)"/>
<path d="M0 0 C4.62 0 9.24 0 14 0 C15.71865431 5.03216802 17.42733683 10.06757111 19.12695312 15.10620117 C19.70626821 16.8190363 20.28827536 18.5309634 20.87304688 20.24194336 C21.71416952 22.70451588 22.54548764 25.17021481 23.375 27.63671875 C23.63748535 28.39836838 23.8999707 29.16001801 24.17041016 29.94474792 C26.6024704 37.23710563 26.6024704 37.23710563 26 41 C24.77832031 42.62158203 24.77832031 42.62158203 23.078125 44.0078125 C22.46453125 44.51957031 21.8509375 45.03132813 21.21875 45.55859375 C20.5690625 46.07550781 19.919375 46.59242188 19.25 47.125 C18.61578125 47.64964844 17.9815625 48.17429688 17.328125 48.71484375 C14.27869113 51.22427371 11.18673277 53.66628156 8 56 C4.38638725 54.41001039 1.59895609 52.19331328 -1.4375 49.6875 C-2.36433594 48.92824219 -3.29117188 48.16898438 -4.24609375 47.38671875 C-5.15488281 46.59910156 -6.06367188 45.81148437 -7 45 C-7.96035156 44.22269531 -8.92070312 43.44539063 -9.91015625 42.64453125 C-12 40 -12 40 -11.78710938 36.82861328 C-10.95999213 32.80539595 -9.82737126 28.9747575 -8.49609375 25.09765625 C-8.2533522 24.3750914 -8.01061066 23.65252655 -7.76051331 22.9080658 C-6.99184073 20.62425181 -6.2148266 18.34338111 -5.4375 16.0625 C-4.91155318 14.50474497 -4.3861571 12.94680388 -3.86132812 11.38867188 C-2.58057492 7.59026747 -1.2923382 3.79447765 0 0 Z " fill="#FAFAFA" transform="translate(249,192)"/>
<path d="M0 0 C1.31356822 3.76741573 2.61317715 7.53933031 3.90014648 11.31591797 C4.33971026 12.59945067 4.78303881 13.88170057 5.23022461 15.16259766 C5.87305724 17.00600426 6.5011722 18.85452238 7.12890625 20.703125 C7.51119385 21.81333008 7.89348145 22.92353516 8.28735352 24.06738281 C9 27 9 27 8 31 C-3.22 25.39 -14.44 19.78 -26 14 C-26 13.34 -26 12.68 -26 12 C-22.04490505 9.99354751 -18.08540979 7.99593864 -14.125 6 C-12.99707031 5.42765625 -11.86914062 4.8553125 -10.70703125 4.265625 C-9.63066406 3.72421875 -8.55429687 3.1828125 -7.4453125 2.625 C-6.45031738 2.12226563 -5.45532227 1.61953125 -4.43017578 1.1015625 C-2 0 -2 0 0 0 Z " fill="#F6F6F6" transform="translate(307,323)"/>
<path d="M0 0 C3.8236626 1.20977381 7.38417716 2.57120662 10.9609375 4.3828125 C11.84394531 4.82753906 12.72695312 5.27226562 13.63671875 5.73046875 C14.54035156 6.19066406 15.44398438 6.65085937 16.375 7.125 C17.30183594 7.59292969 18.22867188 8.06085938 19.18359375 8.54296875 C21.45759406 9.69169056 23.72963282 10.84411881 26 12 C26 12.66 26 13.32 26 14 C14.78 19.61 3.56 25.22 -8 31 C-9.13665901 26.45336397 -8.62212338 25.03959117 -7.12890625 20.703125 C-6.71962891 19.49785156 -6.31035156 18.29257812 -5.88867188 17.05078125 C-5.44684153 15.783775 -5.0047813 14.5168489 -4.5625 13.25 C-4.12338497 11.96777764 -3.68522284 10.68522853 -3.24804688 9.40234375 C-2.17470566 6.26488482 -1.0917087 3.13110539 0 0 Z " fill="#F7F7F7" transform="translate(205,323)"/>
<path d="M0 0 C3.7198608 3.7198608 4.65212486 7.03140279 6.25 11.9375 C6.53101563 12.74896484 6.81203125 13.56042969 7.1015625 14.39648438 C7.36195313 15.18216797 7.62234375 15.96785156 7.890625 16.77734375 C8.24688965 17.84843384 8.24688965 17.84843384 8.61035156 18.94116211 C9.05309027 21.28052021 8.73533207 22.75774171 8 25 C5.74910772 22.91762372 3.49926118 20.83413684 1.25 18.75 C0.61578125 18.16347656 -0.0184375 17.57695312 -0.671875 16.97265625 C-1.290625 16.39902344 -1.909375 15.82539063 -2.546875 15.234375 C-3.11245117 14.71069336 -3.67802734 14.18701172 -4.26074219 13.64746094 C-6.20931576 11.80173179 -8.10215187 9.89784813 -10 8 C-6.7 5.36 -3.4 2.72 0 0 Z " fill="#EFEFEF" transform="translate(282,254)"/>
<path d="M0 0 C5.01160673 1.90132539 7.36024066 4.10630396 11 8 C9.89331271 11.32006187 9.05427405 12.0582597 6.4375 14.25 C5.72464844 14.85457031 5.01179687 15.45914062 4.27734375 16.08203125 C3.52582031 16.71496094 2.77429688 17.34789062 2 18 C0.49732552 19.30943715 -1.00281393 20.62179103 -2.5 21.9375 C-3.66666667 22.95833333 -4.83333333 23.97916667 -6 25 C-7.22095366 21.50347185 -6.76884532 19.47527427 -5.56640625 16.015625 C-5.24736328 15.08105469 -4.92832031 14.14648438 -4.59960938 13.18359375 C-4.08624023 11.73146484 -4.08624023 11.73146484 -3.5625 10.25 C-3.22412109 9.26644531 -2.88574219 8.28289062 -2.53710938 7.26953125 C-1.7007587 4.84293634 -0.85478572 2.42014972 0 0 Z " fill="#EFEFEF" transform="translate(228,254)"/>
</svg>
