<?xml version="1.0" encoding="UTF-8"?>
<svg version="1.1" xmlns="http://www.w3.org/2000/svg" width="512" height="512">
<path d="M0 0 C43.89 0 87.78 0 133 0 C136.52785729 5.29178594 140.02524007 10.54066456 143.375 15.9375 C144.06335938 17.03964844 144.75171875 18.14179687 145.4609375 19.27734375 C147 22 147 22 147 24 C222.57 24 298.14 24 376 24 C375.625 105.5 375.625 105.5 375.39697266 131.22460938 C375.39675016 138.84065447 375.39675016 138.84065447 375.41513062 146.45666504 C375.42281524 149.84740325 375.39125303 153.23532788 375.33578491 156.62561035 C375.26624341 160.95508194 375.26420256 165.27972555 375.31036639 169.60945606 C375.31590657 171.19526189 375.29802432 172.78136957 375.25367284 174.36656475 C375.12671285 179.1780385 375.24516603 183.44145489 377 188 C379.9816585 191.02163797 383.63501835 192.75222714 387.4839077 194.4327774 C405.86964833 202.62782625 418.42643301 222.08174977 426 240 C435.44853443 265.12132597 434.86808936 292.84908608 423.8449707 317.32177734 C412.41422108 341.33444572 391.89979679 359.06567801 367 368 C342.79788272 376.27291058 315.62634641 373.81690527 292.72265625 362.9140625 C269.69479954 351.38535375 252.5830304 331.12351726 244 307 C244 306.01 244 305.02 244 304 C163.48 304 82.96 304 0 304 C0 203.68 0 103.36 0 0 Z " fill="#FEC009" transform="translate(40,72)"/>
<path d="M0 0 C19.20916305 15.86188346 32.39637651 37.37231993 36 62.25 C37.76962457 92.06024123 32.65830583 117.47679209 12.625 140.4375 C-4.76010027 158.97962913 -26.99465536 171.48970686 -52.7109375 172.6328125 C-81.21130217 173.34445376 -105.42513593 166.46659255 -126.62890625 146.5859375 C-145.62899771 127.86756074 -156.22412959 104.58720897 -156.5 77.875 C-156.19273515 50.45986501 -146.91736652 28.06984639 -128 8.25 C-127.47277344 7.64800781 -126.94554687 7.04601562 -126.40234375 6.42578125 C-94.62519783 -28.43968064 -35.62176992 -27.53346757 0 0 Z " fill="#FE9803" transform="translate(436,271.75)"/>
<path d="M0 0 C75.57 0 151.14 0 229 0 C229 15.84 229 31.68 229 48 C203.07863335 48.31613541 177.15882923 48.57397833 151.2360239 48.72537041 C139.19937145 48.79753552 127.16400242 48.89590145 115.12817383 49.05615234 C104.63656967 49.19577599 94.1458949 49.28603302 83.65338749 49.31723893 C78.09800615 49.33547964 72.54528333 49.37827666 66.99075508 49.48022079 C61.75893596 49.57546161 56.53086151 49.60452638 51.29825783 49.58350754 C49.38127507 49.58735046 47.46416361 49.61509204 45.54793167 49.66887665 C31.45430055 50.0449573 31.45430055 50.0449573 27.36162639 46.63488436 C24.07997514 42.82466973 22.06889768 38.54917608 20 34 C18.95025854 32.22358739 17.8814952 30.45795833 16.77734375 28.71484375 C15.82852404 27.12370872 14.88188446 25.53127148 13.9375 23.9375 C9.80160232 16.99415286 5.61224615 10.09113357 1.328125 3.23828125 C0 1 0 1 0 0 Z " fill="#FE9803" transform="translate(187,96)"/>
<path d="M0 0 C3.15398193 1.40033295 5.31944046 3.05426896 7.7746582 5.46826172 C8.49833084 6.17594696 9.22200348 6.8836322 9.96760559 7.61276245 C10.73755356 8.37734772 11.50750153 9.14193298 12.30078125 9.9296875 C13.09655075 10.71642853 13.89232025 11.50316956 14.71220398 12.31375122 C16.3900429 13.97709484 18.0650944 15.64325421 19.73754883 17.31201172 C22.30809058 19.87061107 24.89668781 22.40997011 27.48632812 24.94921875 C29.11312482 26.5665568 30.73881474 28.18500902 32.36328125 29.8046875 C33.14335037 30.5652243 33.92341949 31.32576111 34.72712708 32.10934448 C35.78899483 33.18032883 35.78899483 33.18032883 36.87231445 34.27294922 C37.81685234 35.20988113 37.81685234 35.20988113 38.7804718 36.16574097 C40 38 40 38 39.82463074 40.08547974 C38.60329462 42.9210189 36.65451443 44.62666224 34.4375 46.75 C33.61121094 47.54921875 32.78492188 48.3484375 31.93359375 49.171875 C31.29550781 49.77515625 30.65742188 50.3784375 30 51 C22.76029612 45.10721777 16.71036251 38.71036251 10 32 C9.67 66.32 9.34 100.64 9 136 C3.72 136 -1.56 136 -7 136 C-7.33 101.68 -7.66 67.36 -8 32 C-14.27 38.27 -20.54 44.54 -27 51 C-29.31 49.02 -31.62 47.04 -34 45 C-35.2375 43.948125 -35.2375 43.948125 -36.5 42.875 C-38 41 -38 41 -37.81312561 39.12347412 C-36.80571836 36.49263431 -35.49133749 35.13040864 -33.48999023 33.14941406 C-32.74929794 32.40894836 -32.00860565 31.66848267 -31.24546814 30.90557861 C-30.44129959 30.11689392 -29.63713104 29.32820923 -28.80859375 28.515625 C-27.98875504 27.70003113 -27.16891632 26.88443726 -26.32423401 26.04412842 C-23.70227238 23.43896894 -21.07007552 20.84442921 -18.4375 18.25 C-16.65882155 16.48636631 -14.88081808 14.7220516 -13.10351562 12.95703125 C-8.7434806 8.63008597 -4.37499473 4.31181602 0 0 Z " fill="#FFC009" transform="translate(375,280)"/>
</svg>
